<?xml version="1.0" encoding="UTF-8"?>
<svg width="44px" height="44px" viewBox="0 0 44 44" version="1.1" xmlns="http://www.w3.org/2000/svg" xmlns:xlink="http://www.w3.org/1999/xlink">
    <!-- Generator: Sketch 56.3 (81716) - https://sketch.com -->
    <title>Group Copy</title>
    <desc>Created with Sketch.</desc>
    <g id="V1--Landing-Page---Mid-Fi" stroke="none" stroke-width="1" fill="none" fill-rule="evenodd">
        <g id="Desktop" transform="translate(-556.000000, -2289.000000)">
            <g id="Group-2" transform="translate(357.000000, 2289.000000)">
                <g id="Group-Copy" transform="translate(199.000000, 0.000000)">
                    <g id="facebook" stroke="#FFFFFF" stroke-width="2">
                        <circle id="Oval" cx="22" cy="22" r="21"></circle>
                    </g>
                    <g id="34364" transform="translate(10.000000, 14.000000)" fill="#FFFFFF" fill-rule="nonzero">
                        <path d="M22.999499,2 L17,2 L17,1 L23,1 L23,2 L22.999499,2 L22.999499,2 Z M12.3818894,8.82699249 C12.7940422,9.47092628 13,10.2527818 13,11.1707058 C13,12.1199567 12.7677862,12.9715204 12.2953575,13.7237231 C11.9948072,14.2214849 11.621653,14.641946 11.1732873,14.9804431 C10.6683201,15.371909 10.0704793,15.6403393 9.38320241,15.7837612 C8.69373259,15.9274222 7.9474836,16 7.14362568,16 L0,16 L0,0 L7.66044652,0 C9.59135319,0.031685536 10.9602765,0.595986997 11.7686388,1.70420356 C12.2536917,2.3838882 12.4940253,3.19946194 12.4940253,4.14745731 C12.4940253,5.12564361 12.2507876,5.90833614 11.7609932,6.50300788 C11.4885361,6.83642342 11.0860441,7.13970781 10.5532208,7.41345888 C11.3602792,7.71148227 11.9726408,8.18078691 12.3818894,8.82699249 Z M4,6 L7.54770407,6 C8.27676502,6 8.86612792,5.88760163 9.32005262,5.6629065 C9.7736641,5.43856707 10,5.03978659 10,4.46722561 C10,3.83465447 9.70030696,3.41478659 9.09948005,3.21270325 C8.58303577,3.07230691 7.92225772,3 7.12046608,3 L4,3 L4,6 Z M10,10.8623146 C10,10.0826393 9.66322569,9.54361908 8.99104029,9.25439556 C8.61514753,9.0900143 8.08479616,9.00600095 7.40478707,9 L4,9 L4,13 L7.3520957,13 C8.04075827,13 8.57377681,12.9146967 8.95844158,12.7367432 C9.65214213,12.4095511 10,11.786854 10,10.8623146 Z M25.901406,7.54305984 C25.9767361,8.05963039 26.010814,8.80911786 25.9969862,9.78874943 L17.9213863,9.78874943 C17.9659364,10.9253698 18.350745,11.7202254 19.0805564,12.1750859 C19.5206766,12.4603324 20.054294,12.5996224 20.6791524,12.5996224 C21.3380308,12.5996224 21.8750618,12.4297724 22.2884519,12.080633 C22.5136902,11.895562 22.712372,11.6343269 22.8841502,11.3047153 L25.8441273,11.3047153 C25.7665986,11.9760328 25.4101979,12.6569077 24.7697181,13.3488149 C23.7774083,14.4485627 22.3857099,15 20.5983836,15 C19.1218665,15 17.820599,14.5349331 16.6911097,13.6081621 C15.5653811,12.6781463 15,11.16985 15,9.07755048 C15,7.11551452 15.5075817,5.61376676 16.5261587,4.56847244 C17.5484963,3.52123125 18.8678732,3 20.4941827,3 C21.4581424,3 22.3271005,3.17569062 23.1023299,3.52890075 C23.8751292,3.88246486 24.5138154,4.43891683 25.0168264,5.20368431 C25.4720473,5.8771847 25.764805,6.65593428 25.901406,7.54305984 Z M23,7.99995083 C22.9456981,7.34492084 22.6881983,6.84914938 22.2245482,6.5103255 C21.7647188,6.17056741 21.190265,6 20.5048339,6 C19.7588487,6 19.1828318,6.18231881 18.7735414,6.5406628 C18.3614723,6.89826925 18.1050724,7.38445275 18,8 L23,8 L23,7.99995083 Z" id="Behance"></path>
                    </g>
                </g>
            </g>
        </g>
    </g>
</svg>